<svg id="svg" version="1.1" width="512" height="433" xmlns="http://www.w3.org/2000/svg"><path d="M13.904 2.476 C 11.926 3.773,7.988 7.437,5.154 10.617 C -3.832 20.699,-6.077 17.233,38.750 62.489 C 90.758 114.994,121.436 146.719,121.798 148.372 C 121.961 149.121,120.949 151.096,119.548 152.761 C 114.451 158.818,117.607 161.309,123.653 156.000 C 129.457 150.904,122.172 145.257,192.150 209.104 C 219.805 234.336,237.334 249.908,265.588 274.342 C 310.886 313.517,403.303 384.762,443.500 411.496 C 470.316 429.330,480.315 433.000,502.088 433.000 C 513.359 433.000,514.573 431.971,508.250 427.780 C 503.666 424.742,481.942 408.727,447.826 383.236 C 372.088 326.644,299.624 267.137,240.500 212.983 C 231.700 204.922,218.650 193.035,211.500 186.567 C 191.375 168.361,153.000 129.990,153.000 128.074 C 153.000 127.129,154.337 124.589,155.972 122.428 C 160.995 115.789,158.963 113.638,152.399 118.645 C 148.068 121.948,147.254 121.613,136.556 112.123 C 123.594 100.623,57.706 36.748,41.530 20.000 C 25.846 3.761,21.559 -0.039,19.028 0.059 C 18.188 0.091,15.882 1.179,13.904 2.476 " stroke="none" fill="grey" fill-rule="evenodd"/></svg>