<svg id="svg" version="1.1" width="418" height="512" xmlns="http://www.w3.org/2000/svg"><path d="M379.444 1.959 C 378.313 2.417,372.966 7.759,367.562 13.829 C 362.158 19.900,356.430 25.408,354.834 26.069 C 353.238 26.730,347.366 32.182,341.784 38.184 C 332.016 48.688,326.770 52.558,311.000 60.892 C 310.175 61.328,302.525 65.520,294.000 70.207 C 285.475 74.894,275.125 80.529,271.000 82.729 C 264.106 86.406,256.060 90.810,218.000 111.745 C 175.416 135.168,174.916 135.408,169.000 135.261 C 164.698 135.155,162.520 135.700,159.000 137.764 C 156.525 139.215,152.700 141.364,150.500 142.541 C 135.130 150.759,101.424 169.335,91.145 175.253 C 79.127 182.172,78.553 182.384,70.145 183.037 C 62.601 183.622,60.299 184.299,52.073 188.354 C 46.887 190.909,42.098 193.000,41.430 193.000 C 39.939 193.000,39.357 194.433,38.484 200.258 C 37.629 205.963,38.799 208.155,43.939 210.473 C 46.173 211.480,48.000 212.631,48.000 213.031 C 48.000 213.430,46.632 214.324,44.960 215.016 C 40.891 216.702,39.000 219.644,39.000 224.288 C 39.000 232.422,35.179 234.136,28.428 229.028 C 26.268 227.393,23.375 226.075,22.000 226.098 C 20.625 226.122,16.125 227.797,12.000 229.820 C 5.854 232.836,4.161 234.194,2.622 237.345 C 0.763 241.153,0.765 241.209,2.831 243.276 C 4.755 245.200,5.317 245.270,10.035 244.181 C 18.386 242.254,26.642 242.719,35.809 245.632 L 44.119 248.273 40.052 250.965 C 34.385 254.717,26.488 265.255,23.485 273.073 C 20.802 280.059,17.777 283.516,9.500 289.057 C 6.750 290.899,3.938 292.957,3.250 293.631 C 1.262 295.581,1.777 299.233,4.937 305.590 C 6.553 308.841,9.140 315.100,10.687 319.500 C 13.436 327.318,13.489 327.876,13.022 344.000 C 12.759 353.075,12.559 369.500,12.577 380.500 C 12.605 398.452,12.889 401.801,15.342 413.205 C 16.846 420.193,19.606 430.768,21.477 436.705 C 27.279 455.121,35.789 486.092,37.496 495.000 C 38.392 499.675,39.589 504.449,40.156 505.610 C 42.702 510.817,55.334 512.599,67.540 509.474 C 86.087 504.726,108.192 488.494,121.058 470.175 C 125.885 463.302,126.396 460.103,124.549 448.310 C 123.887 444.083,124.159 441.830,126.015 436.166 C 127.269 432.341,128.018 428.490,127.680 427.607 C 127.341 426.725,124.607 424.916,121.604 423.588 C 113.385 419.954,110.526 415.094,110.414 404.565 C 110.367 400.129,110.254 395.970,110.164 395.323 C 110.074 394.676,107.589 393.043,104.643 391.694 C 97.578 388.460,94.040 383.791,93.313 376.741 C 92.142 365.394,98.502 358.208,113.425 354.021 C 121.402 351.783,124.900 349.272,124.967 345.737 C 124.996 344.194,125.529 344.309,129.250 346.659 C 137.972 352.168,148.159 353.451,156.879 350.138 C 164.262 347.333,182.800 334.017,190.068 326.299 C 193.605 322.542,198.066 316.550,199.980 312.984 C 203.207 306.970,203.461 305.847,203.480 297.500 C 203.496 290.119,202.989 287.061,200.657 280.500 C 197.341 271.170,196.817 262.992,199.241 258.422 C 201.023 255.063,203.679 253.079,214.921 246.706 C 219.003 244.393,222.798 241.757,223.353 240.849 C 224.136 239.572,222.696 235.915,216.989 224.680 L 209.613 210.161 208.950 199.831 C 208.176 187.765,208.228 187.658,217.432 182.617 C 237.430 171.665,255.379 161.809,261.250 158.556 C 265.804 156.033,268.000 154.214,268.000 152.966 C 268.000 151.948,266.131 148.134,263.846 144.490 C 259.762 137.977,259.724 137.832,261.596 135.968 C 262.643 134.925,267.100 132.121,271.500 129.735 C 282.527 123.758,357.120 83.110,370.000 76.060 C 400.784 59.209,414.069 51.621,415.220 50.233 C 415.924 49.383,416.478 46.360,416.450 43.514 C 416.383 36.543,412.568 29.080,405.196 21.500 C 401.987 18.200,397.910 13.365,396.137 10.756 C 390.813 2.924,384.838 -0.225,379.444 1.959 M180.852 270.423 C 184.757 272.443,191.631 280.182,193.516 284.683 C 194.395 286.782,195.352 291.200,195.642 294.500 C 196.697 306.505,192.008 313.796,173.459 328.997 C 158.269 341.445,153.801 344.120,147.135 344.761 C 136.439 345.789,130.304 341.377,123.351 327.660 C 118.996 319.069,118.111 312.615,120.449 306.495 C 122.377 301.446,124.316 300.003,129.184 299.994 C 131.008 299.991,134.265 299.499,136.422 298.900 L 140.344 297.811 146.584 304.717 C 153.723 312.617,163.145 317.747,172.240 318.685 C 177.981 319.278,185.012 317.135,184.985 314.801 C 184.947 311.617,182.967 310.592,175.478 309.876 C 166.235 308.993,161.533 306.292,157.622 299.618 C 154.977 295.105,152.403 281.719,153.587 278.633 C 153.881 277.867,157.263 275.792,161.102 274.022 C 172.657 268.697,176.247 268.042,180.852 270.423 " stroke="none" fill="grey" fill-rule="evenodd"/></svg>