<svg id="svg" version="1.1" width="512" height="295" xmlns="http://www.w3.org/2000/svg"><path d="M485.235 1.543 C 481.598 3.073,480.226 6.685,482.013 10.024 C 483.440 12.691,481.498 31.372,479.641 32.834 C 479.014 33.329,472.650 35.931,465.500 38.617 C 454.411 42.782,451.456 43.500,445.399 43.500 C 438.716 43.500,438.015 43.279,433.485 39.750 C 430.602 37.504,427.575 36.000,425.936 36.000 C 424.432 36.000,419.218 37.536,414.350 39.414 C 395.088 46.844,381.710 51.000,377.051 51.000 C 373.648 51.000,364.262 53.802,343.550 61.000 C 327.724 66.500,314.603 71.000,314.391 71.000 C 314.179 71.000,312.317 72.500,310.253 74.333 C 307.387 76.878,298.820 80.640,274.000 90.254 C 256.125 97.179,240.150 103.175,238.500 103.581 C 236.850 103.986,231.900 105.855,227.500 107.735 C 223.100 109.615,207.125 115.800,192.000 121.481 C 153.982 135.761,148.741 137.888,146.840 139.817 C 145.066 141.617,138.000 158.086,138.000 160.423 C 138.000 162.333,132.775 166.578,126.607 169.678 C 123.798 171.090,118.670 174.212,115.211 176.616 C 111.751 179.021,105.326 182.864,100.932 185.157 C 93.936 188.808,92.222 189.300,87.142 189.117 C 79.780 188.851,80.239 188.618,32.000 217.099 C -2.105 237.236,0.000 235.803,0.000 238.886 C 0.000 240.459,0.916 242.519,2.087 243.578 C 4.659 245.906,21.597 273.124,25.998 282.000 C 30.762 291.609,33.593 295.007,36.801 294.965 C 38.981 294.937,42.286 291.925,54.000 279.289 C 61.975 270.686,70.929 261.364,73.898 258.574 C 76.867 255.783,89.017 243.784,100.898 231.910 C 131.861 200.963,148.437 187.079,152.540 188.654 C 153.233 188.920,155.533 191.919,157.650 195.319 L 161.500 201.500 161.157 219.562 L 160.813 237.625 163.610 240.948 C 168.633 246.918,176.066 248.505,184.230 245.350 C 186.578 244.442,188.909 243.336,189.408 242.892 C 189.907 242.447,190.362 231.378,190.418 218.292 C 190.488 201.853,190.899 193.639,191.749 191.714 C 192.912 189.077,193.232 188.962,197.739 189.560 C 201.874 190.108,203.863 189.628,212.878 185.905 C 221.942 182.161,223.740 181.006,227.079 176.781 L 230.903 171.943 232.120 176.222 C 234.147 183.346,234.740 182.619,235.494 172.086 C 235.891 166.539,236.603 162.000,237.076 162.000 C 237.549 162.000,241.313 166.199,245.441 171.330 C 253.637 181.520,274.728 200.569,286.276 208.209 C 298.919 216.575,326.780 227.943,334.731 227.980 C 338.309 227.997,339.041 227.653,339.472 225.750 C 339.752 224.512,340.961 219.225,342.158 214.000 C 343.355 208.775,344.519 201.516,344.745 197.868 L 345.155 191.237 339.924 189.982 C 322.125 185.712,297.791 172.040,286.799 160.133 C 279.869 152.627,273.000 142.290,273.000 139.367 C 273.000 136.644,275.410 134.882,283.595 131.619 C 286.843 130.324,296.925 126.231,306.000 122.523 C 315.075 118.814,330.600 112.502,340.500 108.496 C 360.658 100.339,387.073 87.787,391.237 84.386 C 393.883 82.226,418.763 72.024,430.000 68.493 C 433.025 67.542,436.850 66.082,438.500 65.249 C 442.710 63.123,484.140 47.275,492.000 44.785 C 501.561 41.756,503.101 40.855,504.796 37.301 C 505.690 35.427,507.517 33.667,509.166 33.092 C 511.224 32.375,512.000 31.442,512.000 29.687 C 512.000 25.984,508.361 22.000,504.978 22.000 C 501.166 22.000,497.653 17.363,494.731 8.472 C 492.210 0.800,490.307 -0.589,485.235 1.543 M491.450 40.937 C 489.776 42.589,449.257 56.907,446.027 56.988 C 441.529 57.101,479.893 42.258,487.500 40.942 C 489.700 40.562,491.702 40.194,491.950 40.125 C 492.197 40.056,491.972 40.422,491.450 40.937 M423.646 52.468 C 420.616 54.763,400.843 62.177,396.250 62.739 C 388.538 63.684,391.824 61.572,406.260 56.303 C 420.634 51.057,427.510 49.541,423.646 52.468 M430.500 64.479 C 424.939 67.135,391.857 79.190,391.395 78.728 C 389.488 76.822,423.938 63.417,431.500 63.123 C 432.974 63.066,432.711 63.422,430.500 64.479 M371.000 70.839 C 371.000 72.421,358.655 76.999,354.500 76.959 C 352.626 76.940,352.614 76.873,354.300 75.892 C 356.197 74.788,368.966 70.101,370.250 70.037 C 370.663 70.017,371.000 70.378,371.000 70.839 M339.141 83.110 C 334.544 85.370,328.920 87.407,326.642 87.635 L 322.500 88.051 325.500 86.570 C 333.394 82.674,342.747 79.057,344.999 79.030 C 346.679 79.010,344.758 80.348,339.141 83.110 M221.684 167.000 C 224.408 172.576,224.556 176.186,222.153 178.362 C 219.668 180.611,203.663 187.000,200.514 187.000 C 197.842 187.000,194.000 183.872,194.000 181.696 C 194.000 180.978,192.654 178.269,191.009 175.675 L 188.017 170.957 190.959 172.479 C 192.577 173.315,194.431 174.000,195.079 174.000 C 195.727 174.000,198.058 175.627,200.259 177.615 C 203.960 180.959,204.629 181.194,209.189 180.756 C 211.900 180.495,214.615 179.785,215.223 179.177 C 216.029 178.371,215.393 178.224,212.866 178.634 C 207.595 179.490,202.360 176.916,201.511 173.052 C 200.641 169.088,202.003 167.387,208.500 164.326 C 215.898 160.841,218.981 161.466,221.684 167.000 " stroke="none" fill="grey" fill-rule="evenodd"/></svg>