<svg id="svg" version="1.1" width="512" height="462" xmlns="http://www.w3.org/2000/svg"><path d="M499.964 5.032 C 493.328 11.026,488.760 14.006,475.500 20.994 C 468.900 24.472,462.375 28.089,461.000 29.032 C 459.625 29.975,454.343 32.856,449.263 35.434 C 439.015 40.634,428.905 48.796,422.962 56.666 C 420.814 59.511,414.207 67.344,408.279 74.074 C 402.350 80.803,395.591 88.594,393.258 91.387 C 390.433 94.769,386.853 97.556,382.537 99.732 C 377.618 102.212,375.870 103.667,375.279 105.775 C 374.456 108.707,366.147 117.000,364.033 117.000 C 363.348 117.000,361.543 115.987,360.020 114.750 C 358.498 113.513,355.958 111.712,354.376 110.749 C 352.794 109.786,349.948 107.858,348.050 106.464 C 346.153 105.070,343.903 104.063,343.050 104.225 C 340.313 104.746,340.646 108.973,343.730 112.855 C 348.616 119.002,348.630 118.797,342.999 124.001 C 338.139 128.493,337.805 129.098,338.225 132.665 C 338.473 134.774,338.994 137.213,339.382 138.085 C 339.912 139.275,335.050 144.124,319.832 157.585 C 308.691 167.438,296.719 178.071,293.228 181.213 C 289.736 184.355,283.614 188.729,279.623 190.932 C 275.632 193.135,271.496 195.912,270.433 197.101 C 268.409 199.367,235.416 228.583,221.636 240.314 C 214.284 246.572,213.296 247.108,209.525 246.876 C 204.331 246.556,203.000 247.397,203.000 250.995 C 203.000 253.872,196.090 260.613,167.366 285.755 C 163.443 289.190,155.685 297.287,150.126 303.750 C 138.814 316.901,134.166 321.021,129.609 321.933 C 127.172 322.420,126.286 323.279,125.508 325.904 C 124.760 328.428,120.202 333.107,107.008 344.895 C 84.327 365.157,83.271 366.000,80.546 366.000 C 77.737 366.000,76.287 367.618,75.590 371.531 C 74.735 376.328,64.533 384.658,37.127 402.937 C 20.887 413.769,18.391 415.122,15.627 414.599 C 6.081 412.793,5.358 412.784,3.679 414.464 C 1.744 416.399,1.484 421.140,3.138 424.316 C 10.012 437.512,25.322 454.557,34.130 458.821 C 39.984 461.655,42.577 461.575,44.591 458.502 C 46.161 456.106,46.146 454.575,44.489 447.988 C 43.946 445.828,45.720 443.306,57.148 429.988 C 73.345 411.112,88.520 395.301,92.333 393.329 C 93.891 392.523,100.871 386.606,107.845 380.182 C 114.819 373.757,125.882 363.775,132.429 358.000 C 138.977 352.225,147.656 344.466,151.717 340.759 C 155.777 337.051,165.040 329.974,172.300 325.032 C 179.765 319.950,192.776 309.553,202.246 301.102 C 211.567 292.784,220.449 285.677,222.279 285.073 C 225.470 284.020,234.364 274.848,244.969 261.674 C 247.427 258.620,251.137 255.167,253.213 254.001 C 255.288 252.834,258.293 249.994,259.889 247.690 C 262.614 243.756,271.686 235.108,287.198 221.656 C 291.548 217.883,294.300 214.621,295.050 212.348 C 296.145 209.031,296.277 208.950,297.572 210.799 C 300.051 214.338,302.653 214.107,307.749 209.895 C 310.358 207.740,312.650 206.449,312.842 207.026 C 313.034 207.603,311.499 210.533,309.429 213.538 C 307.360 216.542,305.925 219.259,306.241 219.574 C 306.556 219.889,308.235 219.413,309.971 218.515 C 311.707 217.617,314.561 217.022,316.314 217.191 C 319.174 217.468,319.551 217.887,320.000 221.283 C 320.532 225.305,320.639 225.380,324.504 224.410 C 329.131 223.248,331.548 224.837,338.499 233.609 C 344.117 240.697,346.336 242.701,350.711 244.636 C 353.651 245.936,356.657 247.000,357.390 247.000 C 359.877 247.000,368.001 238.515,367.989 235.930 C 367.981 234.234,364.809 230.100,357.489 222.249 C 351.720 216.061,347.000 210.394,347.000 209.655 C 347.000 208.917,348.854 205.551,351.121 202.176 C 353.895 198.044,355.407 194.571,355.748 191.544 C 356.248 187.104,356.169 186.961,349.219 179.775 C 345.349 175.774,342.029 171.624,341.841 170.553 C 341.585 169.092,347.374 163.282,365.000 147.307 C 377.925 135.594,389.625 125.756,391.000 125.445 C 395.194 124.498,396.363 123.550,400.066 118.087 C 403.024 113.724,407.201 110.360,424.566 98.358 C 436.080 90.400,447.075 83.053,449.000 82.030 C 456.265 78.171,466.426 66.606,481.500 45.040 C 489.750 33.236,499.762 20.136,503.750 15.928 C 507.738 11.721,511.000 7.573,511.000 6.711 C 511.000 5.267,506.576 1.000,505.079 1.000 C 504.721 1.000,502.419 2.814,499.964 5.032 M348.923 185.077 C 350.615 186.769,351.990 189.132,351.978 190.327 C 351.940 194.078,348.434 200.438,345.558 201.973 C 343.034 203.320,342.681 203.284,341.410 201.546 C 339.754 199.282,339.767 199.263,343.395 198.605 C 344.963 198.321,346.460 197.873,346.723 197.611 C 347.660 196.673,345.847 195.000,343.896 195.000 C 340.780 195.000,337.021 190.664,337.706 187.860 C 339.256 181.510,344.144 180.297,348.923 185.077 " stroke="none" fill="grey" fill-rule="evenodd"/></svg>