<?xml version="1.0" standalone="no"?>
<!DOCTYPE svg PUBLIC "-//W3C//DTD SVG 20010904//EN"
 "http://www.w3.org/TR/2001/REC-SVG-20010904/DTD/svg10.dtd">
<svg version="1.0" xmlns="http://www.w3.org/2000/svg"
 width="2300.000000pt" height="1600.000000pt" viewBox="0 0 2300.000000 1600.000000"
 preserveAspectRatio="xMidYMid meet">

<g transform="translate(0.000000,1600.000000) scale(0.100000,-0.100000)"
fill="#000000" stroke="none">
<path d="M17865 11128 c154 -118 323 -303 447 -489 129 -195 268 -512 323
-737 9 -40 20 -71 22 -68 3 3 14 51 24 106 18 101 18 102 -3 163 -53 157 -192
411 -313 571 -125 167 -362 386 -497 459 l-33 18 30 -23z"/>
<path d="M21960 11033 c0 -70 -92 -679 -105 -691 -4 -4 -502 -9 -1108 -12
l-1102 -5 -126 -765 c-70 -421 -130 -782 -133 -802 l-6 -38 75 0 c41 0 75 4
75 8 0 5 25 157 55 338 30 181 87 520 125 753 43 262 75 428 82 433 7 4 505 8
1106 8 865 0 1094 3 1097 13 3 6 25 140 50 296 33 209 45 313 45 392 0 123 -1
124 -85 135 l-45 7 0 -70z"/>
<path d="M4726 10862 c-2 -4 0 -55 4 -112 5 -58 28 -339 50 -625 22 -286 47
-583 56 -660 35 -332 108 -862 119 -873 3 -3 24 35 46 84 l42 89 -37 305 c-45
379 -60 537 -86 905 -11 160 -29 387 -40 505 -10 118 -22 254 -25 303 l-7 87
-59 0 c-32 0 -60 -4 -63 -8z"/>
<path d="M7530 10806 c0 -98 -39 -289 -180 -891 -132 -562 -190 -837 -260
-1235 -61 -348 -69 -394 -64 -399 2 -2 40 33 85 77 l82 82 58 312 c69 375 126
641 213 1003 177 741 196 837 196 1002 l0 113 -65 0 -65 0 0 -64z"/>
<path d="M3545 10738 c-43 -57 -111 -146 -150 -198 -269 -354 -924 -1329
-1170 -1739 -38 -63 -71 -109 -73 -103 -2 6 2 37 7 68 23 121 4 224 -57 314
-55 82 -177 196 -247 230 -104 52 -245 72 -344 49 -116 -26 -238 -122 -297
-232 l-30 -57 -87 79 c-99 88 -157 123 -242 146 -252 65 -484 -102 -525 -379
-32 -216 45 -427 232 -635 97 -108 148 -151 357 -300 62 -45 291 -273 291
-291 0 -16 48 -11 89 9 87 45 287 207 450 365 105 102 105 104 -12 -104 -109
-194 -230 -401 -332 -565 -215 -351 -327 -552 -355 -640 -18 -55 -60 -137
-146 -287 -41 -69 -74 -129 -74 -132 0 -9 743 -7 756 2 6 4 45 72 86 152 42
80 108 208 148 284 39 77 104 191 143 255 39 64 84 139 100 166 103 178 205
355 391 685 182 321 377 651 532 898 72 116 619 935 705 1057 262 370 250 354
266 333 5 -7 24 -195 42 -418 45 -567 80 -860 161 -1375 97 -608 247 -1321
301 -1427 51 -101 146 -167 270 -189 161 -29 330 53 406 198 32 60 116 252
223 508 196 470 502 1140 670 1470 145 282 346 644 376 675 29 30 34 -3 13
-95 -125 -571 -305 -1681 -348 -2155 -27 -293 -64 -814 -65 -930 l-1 -95 332
-3 c309 -2 333 -1 341 15 5 10 12 68 16 128 33 562 45 717 86 1070 58 502 264
1678 374 2138 25 104 112 471 160 672 39 164 96 447 96 476 0 5 -191 9 -483 9
l-483 0 -26 -27 c-113 -124 -392 -537 -610 -908 -257 -435 -555 -1017 -782
-1525 -53 -118 -101 -219 -106 -224 -27 -27 -39 21 -85 334 -13 91 -33 226
-44 300 -40 271 -92 747 -111 1025 -15 217 -49 644 -60 755 -5 52 -12 134 -15
183 l-7 87 -488 0 -487 0 -78 -102z"/>
<path d="M16555 10591 c-333 -79 -648 -286 -897 -588 -366 -444 -563 -943
-613 -1548 -9 -99 8 -281 41 -443 80 -401 274 -755 523 -954 134 -107 156
-111 58 -12 -124 125 -196 228 -277 389 -174 348 -241 723 -195 1095 76 614
355 1184 772 1580 228 216 525 373 790 416 84 13 104 13 181 0 48 -8 107 -22
131 -31 72 -25 60 -8 -21 29 -169 79 -343 102 -493 67z"/>
<path d="M3839 9779 c-38 -49 -485 -714 -615 -914 -215 -329 -469 -751 -666
-1105 -162 -290 -332 -585 -450 -778 -51 -84 -163 -289 -249 -455 l-155 -302
-422 -3 -422 -2 0 -35 0 -35 491 2 492 3 131 256 c142 278 220 419 303 547 29
45 62 101 74 125 12 23 68 121 124 217 56 96 160 279 230 405 257 462 513 876
892 1443 l283 422 -1 78 c0 42 -4 97 -7 121 l-7 45 -26 -35z"/>
<path d="M17860 9647 c0 -27 27 -49 71 -58 24 -4 186 -8 360 -9 l317 0 6 31
c3 17 3 35 0 40 -3 5 -169 9 -380 9 -301 0 -374 -3 -374 -13z"/>
<path d="M11477 9643 c-4 -3 -7 -29 -7 -56 0 -39 -14 -82 -60 -191 -62 -146
-180 -454 -180 -469 0 -4 35 -7 78 -5 l77 3 39 100 c21 55 70 173 107 263 69
162 69 164 69 257 0 75 -3 94 -16 99 -21 8 -99 8 -107 -1z"/>
<path d="M10492 9548 c-48 -113 -98 -246 -174 -463 -38 -110 -73 -204 -78
-209 -4 -4 -62 -8 -127 -7 -65 1 -142 -3 -170 -9 l-53 -12 -20 -66 c-11 -37
-33 -125 -50 -197 -40 -169 -43 -178 -56 -182 -6 -2 -34 28 -62 66 -100 137
-321 278 -527 335 -289 80 -685 72 -1004 -20 -513 -149 -983 -480 -1195 -843
-178 -303 -205 -647 -72 -909 75 -148 203 -297 349 -406 281 -210 638 -310
1242 -346 270 -17 489 7 673 72 146 51 140 42 79 119 -141 178 -253 323 -267
345 l-15 25 -220 -7 c-270 -8 -498 14 -693 67 -173 46 -322 158 -394 296 -27
51 -30 65 -20 75 18 18 310 17 597 -1 398 -25 913 -1 1075 50 181 57 318 194
425 423 87 186 111 376 67 528 -23 81 -16 92 42 71 22 -8 79 -18 125 -23 46
-5 88 -14 92 -21 4 -6 -4 -53 -18 -103 -71 -264 -132 -590 -153 -812 -18 -191
20 -435 90 -575 123 -245 293 -363 632 -438 201 -45 333 -55 464 -36 95 14
325 68 346 81 5 3 -20 36 -54 73 -82 89 -152 209 -199 340 -30 85 -41 106 -56
104 -10 -1 -57 -9 -104 -19 -81 -16 -89 -16 -156 0 -61 15 -75 23 -103 57 -42
53 -56 89 -70 188 -22 145 5 382 81 711 71 311 92 379 118 381 9 1 144 1 301
0 157 -1 290 2 296 6 6 4 17 58 23 120 10 93 67 343 87 374 6 11 -33 27 -96
39 -25 5 -133 12 -240 15 -122 4 -197 10 -201 17 -12 18 135 431 237 666 30
69 54 127 54 129 0 2 -184 3 -409 3 l-408 0 -31 -72z m-1604 -1263 c70 -21
137 -85 148 -139 4 -22 2 -66 -4 -99 -16 -83 -74 -205 -104 -216 -42 -16 -424
-23 -588 -11 -85 6 -233 13 -328 17 -211 7 -221 12 -166 73 78 87 275 218 441
293 209 94 454 128 601 82z"/>
<path d="M8579 8155 c-47 -13 -125 -41 -175 -62 -88 -39 -228 -116 -238 -132
-3 -4 43 -11 101 -15 l107 -6 115 54 c117 55 246 98 334 111 26 4 47 11 47 17
0 5 -24 20 -52 33 -67 31 -125 31 -239 0z"/>
<path d="M21113 9235 c-121 -26 -193 -69 -252 -149 -76 -103 -86 -130 -86
-246 0 -58 4 -124 9 -147 8 -40 7 -43 -13 -43 -16 0 -21 -6 -21 -27 0 -57 10
-73 45 -73 27 0 35 -5 45 -30 7 -17 25 -48 40 -68 14 -20 54 -81 87 -134 34
-54 89 -131 123 -173 138 -169 487 -460 586 -489 18 -6 31 5 74 59 77 97 201
206 330 292 160 107 281 230 342 349 130 251 126 497 -10 676 -170 225 -520
201 -699 -47 l-47 -64 -34 71 c-58 120 -179 219 -303 247 -59 14 -141 12 -216
-4z"/>
<path d="M22581 8985 c22 -44 44 -107 50 -140 23 -125 -14 -341 -86 -492 -73
-155 -210 -308 -410 -458 -125 -93 -194 -165 -250 -260 -72 -124 -112 -143
-218 -105 -34 13 -93 46 -131 74 -38 28 -80 58 -93 66 -12 8 -51 37 -85 64
-48 38 -56 42 -33 17 17 -18 53 -49 81 -70 28 -20 103 -75 167 -123 125 -94
173 -118 252 -125 63 -6 88 12 139 100 63 108 131 181 249 269 268 199 404
373 473 608 26 85 29 110 29 241 l0 145 -43 86 c-23 47 -62 108 -86 135 l-44
48 39 -80z"/>
<path d="M6026 8589 c-172 -354 -326 -694 -476 -1049 -183 -434 -285 -667
-308 -705 -53 -87 -136 -151 -231 -179 -41 -12 -100 -16 -230 -16 -157 -1
-174 -2 -157 -15 48 -36 130 -56 251 -62 224 -10 355 27 448 126 55 58 80 107
187 361 185 439 319 749 430 995 65 143 122 276 128 295 16 51 84 471 77 478
-2 3 -56 -100 -119 -229z"/>
<path d="M11706 8805 c-3 -9 -6 -49 -6 -88 0 -44 -8 -98 -20 -137 -27 -88 -51
-192 -46 -197 8 -9 188 150 197 174 5 13 9 69 9 123 0 99 0 100 -28 114 -15 8
-44 17 -63 21 -29 5 -38 3 -43 -10z"/>
<path d="M12336 8601 c-4 -7 -5 -15 -2 -18 9 -9 19 4 14 18 -4 11 -6 11 -12 0z"/>
<path d="M12206 8565 c-120 -49 -342 -197 -466 -312 -76 -70 -206 -238 -268
-346 -143 -251 -233 -544 -233 -764 0 -259 103 -481 312 -668 65 -58 181 -139
225 -155 13 -5 43 -18 67 -29 23 -10 58 -22 78 -26 32 -6 37 -4 42 17 4 12 7
33 7 45 0 12 4 23 9 25 4 2 10 23 13 48 l6 45 -14 -30 c-14 -29 -14 -28 -9 26
3 30 1 67 -4 82 -7 17 -7 27 -1 27 6 0 10 9 10 21 0 11 -4 17 -10 14 -5 -3
-10 3 -10 14 0 12 5 21 11 21 5 0 8 4 5 9 -12 18 -8 118 5 142 7 13 12 35 11
49 -2 23 -1 23 7 5 l10 -20 1 20 c4 40 9 81 16 124 3 24 2 52 -4 65 -25 52
-20 179 13 321 9 39 17 79 18 90 1 11 17 49 35 84 23 43 32 71 28 87 -4 13 -2
24 3 24 4 0 8 29 8 65 0 36 -5 65 -9 65 -5 0 -4 9 2 20 6 11 8 31 4 45 -4 18
-3 25 6 23 7 -2 20 27 33 77 11 44 27 85 35 91 10 7 13 24 11 51 -3 23 -2 41
1 41 3 -1 13 2 23 7 14 6 15 10 6 21 -14 17 6 98 22 89 12 -8 31 43 26 69 -3
15 -5 13 -6 -7 0 -16 -5 -26 -10 -23 -5 4 -5 23 1 46 6 22 15 37 20 34 5 -3 7
5 4 18 -13 63 -16 99 -9 95 11 -7 39 48 47 89 10 59 -32 69 -128 29z m99 -76
c-8 -19 -13 -26 -10 -16 3 10 8 37 12 60 6 34 8 37 11 16 2 -15 -4 -42 -13
-60z m-78 -311 c-3 -8 -6 -5 -6 6 -1 11 2 17 5 13 3 -3 4 -12 1 -19z m-10 -50
c-3 -7 -5 -2 -5 12 0 14 2 19 5 13 2 -7 2 -19 0 -25z"/>
<path d="M10972 8119 c-54 -142 -172 -722 -172 -842 0 -60 27 -158 51 -183 20
-22 96 -61 103 -53 2 2 -3 36 -12 74 -13 60 -13 84 -3 166 16 128 81 449 129
629 l37 145 138 5 138 5 20 33 21 32 -160 0 c-87 0 -187 3 -220 6 -58 6 -62 6
-70 -17z"/>
<path d="M20946 8093 c-4 -27 -14 -90 -23 -140 l-16 -93 -836 -2 -835 -3 -156
-940 -156 -940 -352 -3 -352 -2 0 -40 0 -40 414 0 c256 0 417 4 421 10 3 5 19
87 35 182 40 235 280 1684 280 1692 0 3 376 6 835 6 l835 0 5 23 c2 12 11 60
19 107 l14 85 -50 60 c-28 33 -53 65 -55 72 -10 26 -21 12 -27 -34z"/>
<path d="M12900 8016 c-169 -39 -386 -178 -499 -320 -102 -127 -197 -327 -234
-488 -15 -67 -15 -68 13 -125 34 -72 156 -190 176 -170 3 2 -10 28 -28 57 -44
70 -43 130 1 260 111 328 284 529 568 662 84 39 208 70 266 65 26 -2 33 2 35
20 3 23 0 24 -118 43 -81 12 -110 12 -180 -4z"/>
<path d="M12181 7943 c-17 -68 -21 -100 -12 -78 5 11 12 29 16 40 5 16 8 17
16 5 6 -10 7 -4 2 19 -5 28 -3 33 8 26 12 -8 12 -6 0 8 -18 23 -19 22 -30 -20z"/>
<path d="M16380 7895 c0 -49 5 -50 592 -53 l548 -3 20 33 c11 18 20 36 20 41
0 4 -265 7 -590 7 l-590 0 0 -25z"/>
<path d="M12137 7716 c-4 -10 -5 -21 -2 -24 9 -9 17 6 13 25 -3 17 -4 17 -11
-1z"/>
<path d="M14217 7655 c-18 -56 -115 -623 -143 -835 -10 -80 -17 -207 -18 -355
-1 -217 -3 -233 -24 -277 -13 -26 -33 -53 -45 -60 -28 -15 -709 -29 -821 -17
-62 7 -103 4 -195 -11 -353 -59 -835 -52 -1081 15 -72 20 -82 18 -40 -5 53
-29 205 -76 311 -97 79 -15 147 -18 424 -18 301 1 343 3 475 25 80 13 161 23
180 22 19 -1 217 -3 440 -3 276 -1 414 2 433 10 18 7 35 27 50 58 20 44 22 65
24 273 3 248 14 356 74 708 21 128 39 248 39 267 0 20 -11 77 -25 128 -14 50
-31 115 -38 142 -10 38 -15 45 -20 30z"/>
<path d="M9678 7375 c-172 -182 -331 -220 -983 -232 -291 -5 -496 1 -737 23
-43 4 -68 3 -68 -3 0 -18 110 -88 118 -76 5 8 62 7 202 -3 370 -25 989 -15
1217 21 154 25 316 98 329 149 2 11 4 62 2 112 l-3 90 -77 -81z"/>
<path d="M18152 7063 c-113 -167 -206 -279 -366 -438 -89 -88 -205 -193 -259
-234 -309 -231 -619 -367 -972 -428 -144 -24 -588 -24 -730 0 -105 19 -293 68
-353 93 -19 8 -37 13 -39 11 -7 -7 175 -85 268 -115 214 -69 369 -86 699 -79
160 3 274 10 328 21 488 92 913 339 1290 750 142 154 140 150 172 338 16 90
27 165 25 166 -2 2 -30 -36 -63 -85z"/>
<path d="M12032 6870 c0 -14 2 -19 5 -12 2 6 2 18 0 25 -3 6 -5 1 -5 -13z"/>
<path d="M9140 6863 c0 -3 33 -47 73 -97 41 -50 108 -136 150 -191 42 -55 93
-110 112 -123 132 -84 -147 -242 -498 -281 -139 -16 -544 -13 -742 4 -250 22
-498 66 -653 117 -35 11 -65 18 -68 15 -7 -7 122 -62 215 -91 362 -114 1057
-167 1450 -110 193 28 413 115 455 179 24 37 20 51 -29 92 -25 20 -66 64 -93
98 -188 237 -242 306 -270 348 -29 41 -38 47 -67 47 -19 0 -35 -3 -35 -7z"/>
<path d="M6836 6769 c-3 -30 -13 -162 -22 -294 -9 -132 -18 -243 -21 -247 -2
-5 -175 -8 -384 -8 l-379 0 0 -35 0 -35 450 0 450 0 4 23 c5 23 27 353 29 442
2 47 -2 56 -52 120 -30 39 -58 74 -62 79 -4 4 -10 -16 -13 -45z"/>
<path d="M11986 6754 c-4 -9 -4 -19 -1 -22 2 -3 7 3 11 12 4 9 4 19 1 22 -2 3
-7 -3 -11 -12z"/>
<path d="M10370 6271 c74 -39 200 -76 340 -102 145 -26 492 -38 608 -20 98 16
291 61 296 70 2 3 -21 23 -53 43 l-57 37 -88 -24 c-48 -13 -145 -34 -215 -46
-109 -18 -149 -21 -296 -15 -212 7 -404 34 -545 76 -52 15 -50 12 10 -19z"/>
</g>
</svg>
