<svg id="svg" version="1.1" width="512" height="414" xmlns="http://www.w3.org/2000/svg"><path d="M8.000 0.923 C 8.000 2.124,2.124 8.000,0.923 8.000 C 0.394 8.000,0.000 15.472,0.000 25.500 C 0.000 39.743,0.258 43.000,1.385 43.000 C 2.147 43.000,3.442 44.013,4.264 45.250 C 6.202 48.170,15.575 57.648,48.268 89.746 C 62.971 104.181,75.000 116.598,75.000 117.340 C 75.000 118.082,73.876 119.996,72.501 121.594 C 69.979 124.527,69.192 130.384,70.609 135.668 C 71.979 140.777,83.393 141.371,89.030 136.628 C 92.442 133.757,94.786 133.279,95.560 135.296 C 95.834 136.009,95.664 142.421,95.183 149.546 C 94.086 165.801,94.715 168.535,99.911 170.091 C 105.373 171.728,110.097 169.941,114.210 164.683 C 116.010 162.382,118.274 159.628,119.241 158.561 C 120.208 157.495,121.000 156.258,121.000 155.811 C 121.000 155.365,121.900 155.000,123.000 155.000 C 124.100 155.000,125.000 155.495,125.000 156.099 C 125.000 156.704,128.443 160.478,132.651 164.486 C 140.870 172.315,141.400 174.046,136.265 176.294 C 129.063 179.446,122.353 184.921,118.554 190.744 L 114.609 196.792 100.054 197.156 L 85.500 197.521 78.919 201.790 C 69.187 208.104,56.165 223.366,54.422 230.500 C 54.019 232.150,52.634 234.491,51.344 235.702 C 49.225 237.693,49.000 238.761,49.000 246.813 C 49.000 254.654,49.298 256.160,51.487 259.386 C 52.856 261.402,54.265 264.278,54.619 265.776 C 54.973 267.274,56.016 269.400,56.938 270.500 C 57.859 271.600,60.050 275.319,61.806 278.765 L 65.000 285.029 65.000 305.515 C 65.000 324.165,65.167 326.167,66.863 327.863 C 67.888 328.888,69.043 331.415,69.430 333.480 C 71.552 344.791,89.807 362.717,101.412 364.885 C 104.032 365.374,106.708 366.587,107.471 367.631 C 108.661 369.258,110.544 369.546,122.025 369.853 L 135.211 370.206 136.856 373.243 C 141.940 382.631,154.415 395.652,164.500 402.097 C 166.700 403.503,170.300 405.833,172.500 407.275 C 174.700 408.718,178.517 410.346,180.982 410.895 C 183.447 411.443,185.607 412.320,185.781 412.844 C 185.968 413.404,195.200 413.857,208.136 413.942 C 223.223 414.042,229.969 413.758,229.527 413.044 C 229.172 412.469,229.695 411.983,230.691 411.962 C 231.686 411.940,235.200 411.631,238.500 411.273 C 250.638 409.958,269.144 410.931,269.806 412.919 C 270.051 413.653,277.710 414.000,293.642 414.000 C 308.205 414.000,316.895 413.640,316.531 413.051 C 316.208 412.528,317.644 411.823,319.722 411.483 C 321.800 411.143,324.625 410.657,326.000 410.403 C 327.375 410.148,330.750 408.366,333.500 406.442 C 336.250 404.518,339.625 402.185,341.000 401.258 C 343.846 399.338,359.402 383.587,364.609 377.352 C 367.386 374.027,368.661 373.245,371.037 373.409 C 374.817 373.671,374.765 373.340,370.750 371.584 C 367.707 370.254,368.327 370.152,380.500 369.982 C 394.024 369.793,398.656 369.078,398.276 367.239 C 398.152 366.643,400.273 365.678,402.989 365.096 C 405.901 364.471,410.646 362.175,414.553 359.501 C 422.418 354.116,422.881 353.668,425.949 348.500 C 427.255 346.300,429.092 343.600,430.031 342.500 C 430.969 341.400,432.033 339.251,432.394 337.725 C 432.755 336.198,433.867 334.133,434.864 333.136 C 437.178 330.822,438.265 315.246,437.376 297.130 L 436.756 284.500 439.378 282.076 C 440.820 280.742,442.008 278.942,442.018 278.076 C 442.028 277.209,443.378 274.520,445.018 272.100 C 446.658 269.679,448.000 267.317,448.000 266.850 C 448.000 266.382,448.868 265.132,449.928 264.072 C 452.390 261.610,453.296 255.466,452.852 244.245 C 452.540 236.363,452.184 234.926,449.750 231.737 C 448.238 229.755,446.999 227.766,446.997 227.317 C 446.995 226.868,444.356 222.675,441.132 218.000 C 436.208 210.860,433.873 208.546,426.539 203.538 L 417.808 197.576 403.717 197.038 L 389.626 196.500 384.113 190.000 C 381.081 186.425,376.978 182.323,374.996 180.885 C 371.864 178.614,369.766 177.703,362.000 175.242 C 360.970 174.916,360.879 174.625,361.711 174.313 C 363.933 173.480,379.803 157.263,380.154 155.466 C 380.402 154.195,381.710 155.420,384.779 159.797 C 389.859 167.043,393.034 169.728,397.515 170.569 C 401.951 171.401,404.455 170.473,408.013 166.677 C 410.650 163.864,410.991 162.794,410.995 157.332 C 410.998 153.939,410.722 150.439,410.382 149.552 C 409.819 148.086,409.653 148.092,408.535 149.621 C 407.502 151.034,407.201 150.265,406.638 144.772 C 406.270 141.181,406.249 137.514,406.592 136.622 C 407.453 134.378,410.532 134.594,413.976 137.141 C 417.378 139.655,425.735 140.747,428.844 139.084 C 431.177 137.835,433.726 133.379,433.468 131.000 C 433.378 130.175,433.236 128.774,433.152 127.888 C 433.069 127.001,431.650 124.576,430.000 122.500 C 428.350 120.424,427.000 118.276,427.000 117.727 C 427.000 116.786,434.527 109.159,454.036 90.332 C 458.691 85.840,464.750 79.680,467.500 76.644 C 470.250 73.607,474.945 69.183,477.933 66.812 C 483.918 62.061,491.849 54.152,495.285 49.505 C 496.503 47.857,499.888 44.159,502.808 41.286 C 506.654 37.501,508.277 35.066,508.703 32.444 C 509.026 30.454,509.900 28.592,510.645 28.306 C 511.492 27.981,512.000 26.187,512.000 23.519 C 512.000 19.466,511.550 18.812,503.033 10.477 C 498.101 5.651,494.303 1.319,494.592 0.851 C 494.881 0.383,492.616 0.000,489.559 0.000 C 485.457 0.000,484.000 0.367,484.000 1.402 C 484.000 2.173,482.762 3.313,481.250 3.934 C 474.841 6.566,469.772 10.659,457.374 23.211 C 410.863 70.299,395.926 85.000,394.596 85.000 C 393.767 85.000,391.381 83.834,389.294 82.408 C 386.092 80.221,384.675 79.883,380.215 80.244 C 373.890 80.754,373.012 81.495,372.283 86.930 C 371.801 90.520,372.102 91.497,374.442 93.939 C 376.173 95.746,377.367 98.319,377.730 101.022 L 378.299 105.267 370.710 97.883 C 362.708 90.097,358.230 86.398,354.042 84.114 C 346.415 79.953,345.782 79.787,339.179 80.206 C 333.358 80.575,331.710 81.163,326.349 84.781 C 319.912 89.126,316.541 92.685,315.410 96.332 C 315.040 97.525,313.884 99.713,312.840 101.195 C 311.796 102.678,310.615 106.503,310.217 109.695 C 309.617 114.492,309.159 115.500,307.579 115.500 C 306.226 115.500,305.263 114.289,304.287 111.361 C 302.688 106.564,294.277 99.334,286.336 95.930 C 283.676 94.790,280.666 93.102,279.646 92.179 C 278.007 90.695,274.676 90.500,250.977 90.500 C 224.546 90.500,224.128 90.532,221.767 92.750 C 220.449 93.987,218.927 95.000,218.384 95.000 C 217.842 95.000,214.496 96.849,210.949 99.110 C 204.526 103.203,199.078 108.472,199.027 110.639 C 199.012 111.266,198.193 112.774,197.208 113.992 C 195.585 115.996,195.290 116.054,194.085 114.603 C 192.963 113.251,192.995 113.000,194.292 113.000 C 195.551 113.000,195.394 112.144,193.418 108.250 C 192.093 105.638,190.998 103.050,190.986 102.500 C 190.959 101.295,185.994 93.568,182.799 89.759 C 181.535 88.252,178.895 86.147,176.933 85.082 C 174.971 84.017,172.779 82.438,172.061 81.573 C 170.183 79.310,154.814 79.314,152.935 81.578 C 152.215 82.446,149.472 84.248,146.839 85.582 C 144.206 86.916,139.085 90.931,135.459 94.504 C 131.833 98.077,128.501 101.000,128.055 101.000 C 127.609 101.000,126.538 102.013,125.674 103.250 L 124.105 105.500 124.052 102.872 C 124.024 101.427,124.686 99.676,125.524 98.980 C 126.362 98.284,126.819 97.486,126.540 97.206 C 126.260 96.927,126.745 96.176,127.617 95.538 C 130.011 93.788,130.631 85.612,128.605 82.520 C 126.271 78.957,118.830 78.948,113.595 82.500 C 111.569 83.875,109.024 85.000,107.940 85.000 C 106.722 85.000,101.107 79.961,93.235 71.802 C 86.231 64.543,73.525 51.725,65.000 43.317 C 56.475 34.909,49.179 27.686,48.786 27.265 C 36.471 14.072,29.943 8.000,28.075 8.000 C 26.869 8.000,26.129 7.601,26.430 7.113 C 27.181 5.897,25.210 4.489,20.741 3.050 C 18.673 2.384,17.237 1.425,17.550 0.919 C 17.867 0.406,15.881 0.000,13.059 0.000 C 10.277 0.000,8.000 0.415,8.000 0.923 M17.336 21.669 C 18.208 22.542,15.069 26.000,13.404 26.000 C 11.690 26.000,10.691 24.249,11.380 22.452 C 11.944 20.984,16.103 20.436,17.336 21.669 M490.829 23.352 C 491.084 24.673,490.673 25.084,489.352 24.829 C 488.346 24.636,487.364 23.654,487.171 22.648 C 486.916 21.327,487.327 20.916,488.648 21.171 C 489.654 21.364,490.636 22.346,490.829 23.352 M27.935 35.250 C 25.292 37.395,23.630 37.465,22.000 35.500 C 21.032 34.334,21.021 33.679,21.950 32.560 C 23.683 30.473,27.294 30.150,28.796 31.948 C 29.883 33.250,29.745 33.782,27.935 35.250 M479.906 33.250 C 481.007 36.192,479.123 37.421,476.773 35.294 C 474.398 33.145,474.528 31.000,477.032 31.000 C 478.224 31.000,479.413 31.931,479.906 33.250 M40.000 43.952 C 40.000 46.310,36.568 49.256,34.324 48.824 C 31.557 48.291,31.950 43.833,34.893 42.366 C 37.798 40.918,40.000 41.602,40.000 43.952 M470.000 45.558 C 470.000 49.715,468.477 50.742,465.844 48.359 C 462.169 45.033,461.641 43.068,464.169 42.133 C 468.032 40.704,470.000 41.859,470.000 45.558 M50.663 53.564 C 51.675 56.202,49.395 59.916,47.126 59.323 C 44.419 58.615,43.855 56.652,45.632 54.115 C 47.377 51.623,49.816 51.356,50.663 53.564 M458.954 53.445 C 459.614 54.240,460.006 55.927,459.827 57.195 C 459.322 60.754,453.977 60.439,452.207 56.746 C 451.481 55.231,451.164 53.544,451.503 52.996 C 452.432 51.492,457.591 51.802,458.954 53.445 M60.810 66.750 C 60.526 70.181,60.245 70.500,57.500 70.500 C 54.919 70.500,54.537 70.162,54.768 68.080 C 55.120 64.910,56.779 63.000,59.183 63.000 C 60.811 63.000,61.071 63.600,60.810 66.750 M447.927 65.635 C 450.591 69.022,450.537 69.827,447.593 70.566 C 443.925 71.487,441.000 69.446,441.000 65.965 C 441.000 63.493,441.403 63.000,443.427 63.000 C 444.859 63.000,446.705 64.081,447.927 65.635 M70.832 78.632 C 70.442 80.660,67.310 81.710,65.888 80.288 C 65.356 79.756,65.855 78.460,67.111 77.111 C 69.430 74.622,71.446 75.446,70.832 78.632 M436.777 76.557 C 439.598 78.532,439.624 80.604,436.838 81.332 C 434.024 82.068,431.000 80.411,431.000 78.131 C 431.000 74.677,433.228 74.070,436.777 76.557 M168.500 84.000 C 168.160 84.550,165.910 85.000,163.500 85.000 C 161.090 85.000,158.840 84.550,158.500 84.000 C 158.116 83.379,160.009 83.000,163.500 83.000 C 166.991 83.000,168.884 83.379,168.500 84.000 M83.000 89.107 C 83.000 90.460,82.286 91.000,80.500 91.000 C 77.878 91.000,77.209 89.191,79.122 87.278 C 80.676 85.724,83.000 86.821,83.000 89.107 M423.930 87.869 C 425.011 89.889,424.445 91.000,422.333 91.000 C 421.578 91.000,421.000 89.917,421.000 88.500 C 421.000 85.552,422.515 85.225,423.930 87.869 M93.428 97.920 C 95.087 99.754,95.068 99.893,93.005 100.997 C 89.153 103.059,86.244 100.156,89.200 97.200 C 90.821 95.579,91.398 95.677,93.428 97.920 M413.990 98.488 C 414.993 99.697,414.909 100.098,413.545 100.621 C 411.575 101.377,409.474 99.660,410.446 98.087 C 411.369 96.594,412.527 96.725,413.990 98.488 M278.394 106.360 C 284.253 109.122,288.048 111.841,293.120 116.913 C 300.971 124.764,302.000 126.875,302.000 135.130 L 302.000 141.130 298.071 138.315 C 295.911 136.767,293.484 134.150,292.679 132.500 C 289.941 126.889,285.018 121.000,283.066 121.000 C 280.987 121.000,277.494 124.846,276.406 128.332 C 276.035 129.525,275.262 130.800,274.690 131.167 C 273.088 132.195,267.277 127.243,266.519 124.205 C 265.608 120.555,263.148 118.000,260.545 118.000 C 257.845 118.000,256.005 119.796,255.985 122.450 C 255.939 128.572,249.933 127.966,246.529 121.497 C 245.413 119.376,243.942 117.461,243.261 117.241 C 242.580 117.021,240.121 119.823,237.797 123.468 C 233.796 129.744,233.389 130.079,230.113 129.798 C 227.022 129.532,226.505 129.048,225.244 125.250 C 224.021 121.567,223.451 121.000,220.968 121.000 C 217.821 121.000,214.820 124.236,210.672 132.098 C 208.130 136.916,205.264 138.121,202.625 135.482 C 196.857 129.714,208.002 114.463,223.405 107.046 C 227.857 104.902,232.400 102.921,233.500 102.643 C 234.600 102.365,243.375 102.251,253.000 102.389 L 270.500 102.640 278.394 106.360 M172.343 125.466 C 176.138 130.125,176.900 131.827,177.498 136.982 C 178.297 143.870,177.248 157.000,175.899 157.000 C 175.404 157.000,175.000 156.358,175.000 155.573 C 175.000 154.788,169.150 148.611,162.000 141.847 C 154.850 135.083,149.000 128.797,149.000 127.878 C 149.000 126.959,150.591 124.811,152.535 123.104 C 155.636 120.381,156.795 120.000,161.980 120.000 L 167.890 120.000 172.343 125.466 M350.590 122.750 C 357.365 127.034,357.277 128.386,349.761 135.426 C 339.541 144.999,327.875 155.430,326.478 156.243 C 325.518 156.802,325.039 155.314,324.546 150.243 C 323.679 141.325,324.660 134.001,327.065 131.436 C 328.129 130.300,329.000 128.778,329.000 128.054 C 329.000 127.329,330.607 125.221,332.571 123.368 C 335.654 120.460,336.832 120.000,341.191 120.000 C 344.978 120.000,347.328 120.687,350.590 122.750 M246.549 132.464 C 248.088 136.146,251.263 138.497,253.526 137.629 C 254.279 137.339,255.386 135.280,255.986 133.051 C 256.609 130.740,257.685 129.000,258.491 129.000 C 261.666 129.000,264.975 131.480,266.347 134.886 C 267.967 138.906,272.265 143.412,273.946 142.851 C 274.545 142.652,276.733 140.241,278.809 137.494 C 280.885 134.747,283.240 132.500,284.042 132.500 C 284.844 132.500,288.104 136.325,291.287 141.000 C 299.502 153.067,299.619 153.156,301.473 148.719 C 302.313 146.709,303.000 143.652,303.000 141.925 C 303.000 139.474,303.346 138.919,304.582 139.393 C 305.452 139.727,306.583 140.000,307.096 140.000 C 308.540 140.000,311.992 146.223,311.996 148.832 C 311.998 150.115,313.238 154.615,314.750 158.832 C 317.325 166.011,317.494 167.488,317.405 182.000 C 317.322 195.430,317.022 198.206,315.155 202.787 C 313.970 205.695,313.000 208.801,313.000 209.691 C 313.000 210.580,311.809 213.825,310.353 216.902 C 307.966 221.947,307.814 222.938,308.795 226.998 C 311.755 239.236,313.330 244.958,315.083 249.839 C 316.770 254.536,316.998 258.022,316.987 278.839 L 316.975 302.500 314.144 308.000 C 307.847 320.237,304.379 324.143,296.000 328.435 C 291.183 330.902,274.870 335.801,267.000 337.143 C 258.539 338.585,236.873 337.674,231.273 335.640 C 228.948 334.796,223.998 333.348,220.273 332.423 C 202.857 328.098,194.846 320.458,187.913 301.559 C 185.150 294.027,185.002 292.815,185.044 278.059 C 185.075 267.058,185.513 261.328,186.539 258.500 C 187.338 256.300,188.462 251.575,189.037 248.000 C 189.612 244.425,191.002 239.025,192.124 236.000 C 195.009 228.229,195.063 220.571,192.271 215.259 C 191.044 212.926,189.583 208.147,189.022 204.639 C 188.462 201.131,187.328 196.345,186.502 194.005 C 184.251 187.625,184.511 172.734,187.000 165.500 C 188.100 162.303,189.000 158.820,189.000 157.760 C 189.000 154.640,194.899 140.639,196.941 138.913 C 197.973 138.041,198.999 136.241,199.220 134.913 C 199.441 133.586,199.607 135.984,199.588 140.242 C 199.563 146.053,199.955 148.384,201.162 149.590 C 202.638 151.067,202.980 151.059,205.359 149.500 C 207.734 147.945,211.382 142.704,214.934 135.750 C 217.389 130.941,224.199 133.077,225.515 139.069 C 226.729 144.594,232.687 144.286,235.405 138.559 C 237.612 133.908,241.840 129.000,243.640 129.000 C 244.444 129.000,245.753 130.559,246.549 132.464 M182.187 144.637 C 181.980 150.144,181.000 150.031,181.000 144.500 C 181.000 141.842,181.298 139.965,181.662 140.329 C 182.026 140.693,182.263 142.632,182.187 144.637 M135.656 143.871 C 136.292 144.217,142.952 150.502,150.457 157.837 C 165.288 172.335,166.045 174.037,157.628 173.965 C 151.994 173.916,150.665 173.019,138.469 161.016 C 126.474 149.213,125.481 147.839,126.953 145.087 C 128.560 142.085,131.595 141.661,135.656 143.871 M377.631 146.668 C 378.101 148.537,377.695 149.525,375.958 150.742 C 371.887 153.594,359.000 165.114,359.000 165.902 C 359.000 167.602,350.476 173.364,347.029 173.995 C 342.848 174.759,338.987 173.692,339.026 171.782 C 339.055 170.334,367.354 143.831,369.871 142.894 C 372.610 141.875,376.959 143.990,377.631 146.668 M201.696 161.978 C 199.113 163.616,197.002 165.528,197.005 166.228 C 197.012 168.139,210.233 174.003,216.102 174.699 C 219.390 175.088,222.194 176.140,223.873 177.614 L 226.500 179.920 222.500 178.841 C 220.188 178.218,215.580 178.034,211.579 178.405 C 204.971 179.017,204.525 178.920,201.750 176.273 L 198.843 173.500 196.922 175.861 C 194.590 178.726,194.391 184.922,196.501 189.003 C 197.327 190.599,200.140 193.382,202.751 195.187 C 206.826 198.002,208.525 198.521,214.721 198.842 C 221.164 199.175,222.672 198.875,228.721 196.052 C 236.554 192.397,243.000 186.647,243.000 183.314 C 243.000 181.602,240.854 179.469,234.402 174.767 C 229.673 171.320,222.939 166.363,219.438 163.750 C 211.726 157.995,208.486 157.672,201.696 161.978 M284.789 163.254 C 281.880 165.594,276.831 169.306,273.569 171.504 C 264.545 177.584,259.829 182.360,260.623 184.615 C 261.905 188.259,268.309 193.866,274.219 196.518 C 279.455 198.868,281.204 199.155,288.432 198.849 C 295.603 198.545,297.222 198.120,300.897 195.573 C 305.857 192.134,306.822 190.578,307.625 184.723 C 308.371 179.280,306.174 176.423,302.092 177.530 C 300.666 177.916,296.496 178.154,292.825 178.057 C 285.531 177.866,277.592 179.530,278.533 181.054 C 278.860 181.582,278.311 182.316,277.313 182.684 C 276.316 183.053,275.260 183.706,274.966 184.137 C 274.672 184.568,273.880 184.038,273.207 182.960 C 272.215 181.372,272.243 181.000,273.352 181.000 C 274.105 181.000,276.430 179.840,278.520 178.422 C 280.656 176.972,284.984 175.382,288.409 174.789 C 295.549 173.552,306.000 168.620,306.000 166.487 C 306.000 164.306,297.040 159.041,293.289 159.019 C 290.989 159.005,288.578 160.207,284.789 163.254 M229.646 185.956 C 228.361 188.818,226.999 190.544,226.250 190.260 C 225.563 189.999,225.000 190.493,225.000 191.358 C 225.000 195.714,216.472 196.112,209.451 192.085 C 198.970 186.073,200.695 183.672,215.572 183.565 C 222.630 183.514,225.012 183.131,226.304 181.839 C 227.217 180.925,228.826 180.403,229.878 180.678 C 231.741 181.166,231.735 181.304,229.646 185.956 M300.084 185.156 C 301.066 186.993,300.886 187.596,298.869 189.226 C 293.609 193.476,288.078 195.240,282.284 194.516 L 276.809 193.832 277.494 190.166 C 278.487 184.854,279.482 184.130,286.335 183.738 C 289.726 183.544,293.947 183.299,295.715 183.193 C 298.104 183.049,299.226 183.554,300.084 185.156 M242.279 206.208 C 239.861 209.222,236.759 216.639,235.525 222.356 C 234.795 225.735,233.479 230.173,232.599 232.218 C 230.824 236.345,230.433 246.531,232.012 247.507 C 233.208 248.247,238.590 236.777,240.591 229.224 C 241.359 226.322,242.764 222.764,243.712 221.317 C 246.902 216.448,245.545 202.136,242.279 206.208 M257.667 205.667 C 256.343 206.990,257.040 215.230,258.863 219.815 C 263.211 230.750,265.060 235.801,266.519 240.733 C 267.388 243.668,268.902 246.412,269.968 246.983 C 272.539 248.359,273.667 248.267,272.200 246.800 C 271.503 246.103,271.000 242.764,271.000 238.838 C 271.000 234.590,270.272 230.109,269.042 226.788 C 267.965 223.879,266.603 219.316,266.015 216.648 C 265.427 213.979,263.779 210.266,262.354 208.398 C 259.732 204.960,258.874 204.460,257.667 205.667 M284.000 233.000 C 281.366 235.634,281.476 238.160,284.610 247.076 C 287.660 255.753,287.491 263.595,284.047 273.225 C 282.921 276.374,282.000 280.830,282.000 283.129 C 282.000 285.516,280.922 289.585,279.485 292.623 C 274.560 303.034,274.924 311.294,280.571 317.250 C 283.909 320.771,284.492 321.000,290.123 321.000 C 295.970 321.000,296.255 320.872,301.560 315.855 C 305.042 312.561,307.000 309.892,307.000 308.437 C 307.000 305.290,308.033 302.902,309.107 303.566 C 311.282 304.910,312.323 297.791,312.406 281.000 C 312.501 261.825,313.113 264.608,305.140 248.000 C 303.688 244.975,300.003 239.912,296.951 236.750 C 290.833 230.410,287.542 229.458,284.000 233.000 M295.785 244.000 C 296.371 249.134,299.058 254.547,301.991 256.500 C 305.901 259.104,305.969 261.144,302.121 260.374 C 298.629 259.676,297.577 261.010,297.292 266.500 C 297.178 268.700,297.036 271.400,296.978 272.500 C 296.919 273.600,297.151 275.625,297.494 277.000 C 297.870 278.509,297.547 280.271,296.680 281.444 C 295.291 283.323,295.150 283.328,292.527 281.610 C 290.334 280.173,289.973 279.413,290.652 277.665 C 291.115 276.474,291.495 268.171,291.497 259.213 C 291.499 245.843,291.231 242.748,290.000 241.931 C 288.887 241.192,289.402 241.008,292.000 241.218 C 294.899 241.452,295.549 241.929,295.785 244.000 M53.725 251.232 C 53.502 253.029,53.315 251.800,53.310 248.500 C 53.304 245.200,53.486 243.729,53.715 245.232 C 53.943 246.735,53.947 249.435,53.725 251.232 M305.843 265.310 C 306.441 266.031,307.235 272.697,307.608 280.123 C 308.373 295.363,307.085 301.723,302.348 306.106 C 300.925 307.423,298.684 310.188,297.368 312.250 C 294.197 317.219,290.022 317.417,285.126 312.829 C 281.864 309.772,281.770 309.471,282.290 303.738 C 282.675 299.497,283.421 297.256,284.914 295.866 C 286.307 294.568,287.000 292.686,287.000 290.202 C 287.000 287.517,287.579 286.120,289.078 285.183 C 292.257 283.198,294.100 285.193,292.884 289.302 C 292.363 291.061,292.203 294.525,292.527 297.000 C 293.014 300.714,292.746 301.898,290.991 303.781 C 289.822 305.035,289.073 306.835,289.327 307.781 C 289.711 309.211,289.909 309.122,290.511 307.250 C 290.908 306.012,291.838 305.000,292.578 305.000 C 294.002 305.000,297.000 296.339,297.000 292.226 C 297.000 290.900,297.900 288.671,299.000 287.273 C 300.100 285.874,301.000 283.245,301.000 281.430 C 301.000 279.615,301.425 277.013,301.944 275.647 C 302.571 273.999,302.507 272.154,301.755 270.162 C 300.872 267.823,300.912 266.811,301.933 265.580 C 303.529 263.657,304.420 263.596,305.843 265.310 M440.286 308.500 C 440.294 311.250,440.488 312.256,440.718 310.736 C 440.947 309.216,440.941 306.966,440.704 305.736 C 440.467 304.506,440.279 305.750,440.286 308.500 M232.655 307.829 C 231.571 309.027,231.000 311.415,231.000 314.756 C 231.000 319.426,231.313 320.113,234.728 322.927 C 239.694 327.021,243.776 327.013,248.458 322.903 L 251.985 319.806 248.742 315.285 C 242.399 306.441,236.419 303.669,232.655 307.829 M259.153 310.479 C 252.879 317.624,254.326 326.000,261.834 326.000 C 267.784 326.000,272.000 320.969,272.000 313.869 C 272.000 308.841,270.410 307.000,266.068 307.000 C 262.912 307.000,261.650 307.635,259.153 310.479 M265.211 315.335 C 265.720 318.703,264.869 322.123,263.625 321.707 C 263.006 321.499,262.449 319.268,262.386 316.748 C 262.301 313.358,262.611 312.297,263.577 312.668 C 264.296 312.944,265.030 314.144,265.211 315.335 M241.160 316.000 C 241.891 317.650,242.855 319.000,243.303 319.000 C 243.751 319.000,243.829 319.468,243.475 320.041 C 242.735 321.238,238.855 320.270,237.765 318.615 C 237.361 318.002,237.024 316.488,237.015 315.250 C 236.993 311.996,239.596 312.467,241.160 316.000 " stroke="none" fill="white" fill-rule="evenodd"/></svg>